<?xml version="1.0" encoding="UTF-8"?>
<svg width="30px" height="30px" viewBox="0 0 30 30" version="1.1" xmlns="http://www.w3.org/2000/svg" xmlns:xlink="http://www.w3.org/1999/xlink">
    <!-- Generator: sketchtool 53.1 (72631) - https://sketchapp.com -->
    <title>78BA8225-EBA5-4529-9772-1399CBAF95AF</title>
    <desc>Created with sketchtool.</desc>
    <g id="Page-1" stroke="none" stroke-width="1" fill="none" fill-rule="evenodd">
        <g id="02-User-List" transform="translate(-705.000000, -779.000000)" fill="#8E44AD" fill-rule="nonzero">
            <g id="icons8-spinner_frame_1" transform="translate(705.000000, 779.000000)">
                <path d="M15.8333333,0 C13.5321469,7.40148683e-16 11.6666667,1.86548021 11.6666667,4.16666667 C11.6666667,6.46785312 13.5321469,8.33333333 15.8333333,8.33333333 C18.1345198,8.33333333 20,6.46785312 20,4.16666667 C20,1.86548021 18.1345198,7.40148683e-16 15.8333333,0 Z M5,5 C3.15905083,5 1.66666667,6.49238417 1.66666667,8.33333333 C1.66666667,10.1742825 3.15905083,11.6666667 5,11.6666667 C6.84094917,11.6666667 8.33333333,10.1742825 8.33333333,8.33333333 C8.33333333,6.49238417 6.84094917,5 5,5 Z M25,6.66666667 C24.0795254,6.66666667 23.3333333,7.41285875 23.3333333,8.33333333 C23.3333333,9.25380792 24.0795254,10 25,10 C25.9204746,10 26.6666667,9.25380792 26.6666667,8.33333333 C26.6666667,7.41285875 25.9204746,6.66666667 25,6.66666667 Z M2.5,15 C1.11928813,15 0,16.1192881 0,17.5 C0,18.8807119 1.11928813,20 2.5,20 C3.88071187,20 5,18.8807119 5,17.5 C5,16.1192881 3.88071187,15 2.5,15 Z M28.3333333,15 C27.4128588,15 26.6666667,15.7461921 26.6666667,16.6666667 C26.6666667,17.5871412 27.4128588,18.3333333 28.3333333,18.3333333 C29.2538079,18.3333333 30,17.5871412 30,16.6666667 C30,15.7461921 29.2538079,15 28.3333333,15 Z M7.5,23.3333333 C6.11928813,23.3333333 5,24.4526215 5,25.8333333 C5,27.2140452 6.11928813,28.3333333 7.5,28.3333333 C8.88071187,28.3333333 10,27.2140452 10,25.8333333 C10,24.4526215 8.88071187,23.3333333 7.5,23.3333333 Z M25,23.3333333 C24.0795254,23.3333333 23.3333333,24.0795254 23.3333333,25 C23.3333333,25.9204746 24.0795254,26.6666667 25,26.6666667 C25.9204746,26.6666667 26.6666667,25.9204746 26.6666667,25 C26.6666667,24.0795254 25.9204746,23.3333333 25,23.3333333 Z M15.8333333,25 C14.4526215,25 13.3333333,26.1192881 13.3333333,27.5 C13.3333333,28.8807119 14.4526215,30 15.8333333,30 C17.2140452,30 18.3333333,28.8807119 18.3333333,27.5 C18.3333333,26.1192881 17.2140452,25 15.8333333,25 L15.8333333,25 Z" id="Shape"></path>
            </g>
        </g>
    </g>
</svg>