<?xml version="1.0" encoding="UTF-8"?>
<svg width="30px" height="30px" viewBox="0 0 30 30" version="1.1" xmlns="http://www.w3.org/2000/svg" xmlns:xlink="http://www.w3.org/1999/xlink">
    <!-- Generator: sketchtool 53.1 (72631) - https://sketchapp.com -->
    <title>7C426DE2-D754-4D8D-9BCB-0C5977ECCD93</title>
    <desc>Created with sketchtool.</desc>
    <g id="Page-1" stroke="none" stroke-width="1" fill="none" fill-rule="evenodd">
        <g id="04-User-List-[Add-new]" transform="translate(-705.000000, -242.000000)" fill="#FFFFFF" fill-rule="nonzero">
            <g id="Popup" transform="translate(538.000000, 207.000000)">
                <g id="icons8-user" transform="translate(167.000000, 35.000000)">
                    <path d="M15,0 C11.3181017,0 8.33333333,2.98476833 8.33333333,6.66666667 C8.33333333,10.348565 11.3181017,13.3333333 15,13.3333333 C18.6818983,13.3333333 21.6666667,10.348565 21.6666667,6.66666667 C21.6666667,2.98476833 18.6818983,0 15,0 Z M9.68424483,18.98763 C4.98924483,20.02763 0,22.3083333 0,25.8333333 L0,30 L30,30 L30,25.8333333 C30,22.3083333 25.010755,20.02763 20.315755,18.98763 C19.0990883,20.6059633 17.18,21.6666667 15,21.6666667 C12.82,21.6666667 10.9009115,20.6059633 9.68424483,18.98763 Z" id="Shape"></path>
                </g>
            </g>
        </g>
    </g>
</svg>